<mxfile host="app.diagrams.net" modified="2024-04-15T13:59:24.628Z" agent="Mozilla/5.0 (Macintosh; Intel Mac OS X 10_15_7) AppleWebKit/537.36 (KHTML, like Gecko) Chrome/122.0.0.0 Safari/537.36" version="24.2.5" etag="hKrbwISdL0YIpT_1k4qz" type="github">
  <diagram name="Page-1" id="TYN0jMu_eqFAn4UOm9RH">
    <mxGraphModel>
      <root>
        <mxCell id="0" />
        <mxCell id="1" parent="0" />
      </root>
    </mxGraphModel>
  </diagram>
</mxfile>
